<svg enable-background="new 0 0 32 32" height="32" viewBox="0 0 32 32" width="32" xmlns="http://www.w3.org/2000/svg"><path d="m15.999 5.482c-.622 0-1.241-.05-1.84-.149l-.792-.131.467-.653c1.218-1.706 1.732-2.049 2.166-2.049.427 0 .958.349 2.158 2.052l.459.65-.785.131c-.595.099-1.211.149-1.833.149z" fill="#3d3d3d"/><path d="m10.5 22.5h11v2h-11z" fill="#b2b2b2"/><path d="m15 29.5c-1.557 0-4.5-.94-4.5-4.5v-.5h11v.5c0 1.557-.94 4.5-4.5 4.5z" fill="#ff6e6e"/><path d="m21.5 9.24v13.26h-11v-13.26l.75.44c.53.3 1.86.82 4.75.82s4.22-.52 4.75-.82z" fill="#ffe164"/><path d="m16 10.5c-2.939 0-4.267-.533-4.797-.851l-.423-.254.249-.427c.34-.583 1.233-2.092 2.176-3.505l.19-.286.335.075c.734.165 1.498.248 2.27.248s1.536-.083 2.271-.248l.335-.075.19.286c.946 1.42 1.837 2.924 2.176 3.505l.249.426-.423.254c-.427.257-1.747.852-4.798.852z" fill="#f4b184"/><path d="m21.87 9.5c-4.29-7.5-5.36-7.5-5.87-7.5s-1.58 0-5.87 7.5l-.13.23v15.27c0 3.96 3.27 5 5 5h2c3.96 0 5-3.27 5-5v-15.27zm-5.87-6.5c.34 0 1.01.79 1.75 1.84-1.14.19-2.36.19-3.51 0 .75-1.05 1.42-1.84 1.76-1.84zm-2.38 2.74c.76.17 1.56.26 2.38.26s1.62-.09 2.38-.26c.84 1.26 1.67 2.64 2.16 3.48-.35.21-1.56.78-4.54.78s-4.19-.57-4.54-.78c.49-.84 1.32-2.22 2.16-3.48zm3.38 23.26h-2s-4 0-4-4h10s0 4-4 4zm4-5h-10v-1h10zm0-2h-1v-1.5c0-.28-.22-.5-.5-.5s-.5.22-.5.5v1.5h-1v-3.5c0-.279-.22-.5-.5-.5s-.5.221-.5.5v3.5h-6v-11.89c.21.12.54.27 1 .41v5.98c0 .28.22.5.5.5s.5-.22.5-.5v-5.74c.76.14 1.73.24 3 .24 3 0 4.41-.55 5-.89z" fill="#3d3d3d"/></svg>